#!OML:ASF F:\VICON\USERDATA\INSTALL\rory3\rory3.ASF
:FULLY-SPECIFIED
:DEGREES
19
root 0.28956369839719026 17.96429666879121 -14.05128958424026 -1.858815581523963 -1.1826867390143754 -7.455776461260402
lfemur -30.610184922886393 -0.7541952494819286 -11.365012620111987
ltibia 52.56178835626001
lfoot -6.282510742823483 1.7317224912394988
ltoes -4.714303491704204
rfemur -2.333188293933608 5.665958856630898 35.26128614659664
rtibia 27.860305490212113
rfoot -19.320086589810124 -11.59019120173032
rtoes 6.49335457264485
lowerback 11.699792244475427 1.1174639033561 5.118748981343744
upperback 0.3366659046136067 2.33689228120442 2.5872997098111785
thorax -6.124450295478541 1.0342325267594579 -0.5493306917605683
lowerneck -15.875007039139511 -3.3710206121144926 -1.7052348379862015
upperneck 20.735608521831654 -4.225864563953104 -0.07609579787243637
head 9.173522955225344 -2.117350172269813 -0.2702799977069197
lclavicle -1.3551357223803463e-15 7.26633354435982e-16
lhumerus -32.72569586060263 8.780751608635654 81.2667983742689
lradius 23.824903634556904
lwrist 6.665002165040938
lhand -29.179401430456192 11.151816384366128
lfingers 7.125019999999999
lthumb -2.5249714299242525 41.11661633071674
rclavicle -1.3551357223803463e-15 7.26633354435982e-16
rhumerus -23.863010737319325 -11.990114176697027 -81.9017877402387
rradius 28.8574986755053
rwrist 0.3115830001272015
rhand -19.5700876722553 22.446699647617862
rfingers 7.125019999999999
rthumb 6.754882329011938 -7.425570118209259
20
root 0.3387431687536088 17.913799706145625 -13.219489939998747 -0.7918170850183752 -1.7260647797034867 -8.064164718610122
lfemur -29.995885328827278 -2.4167688085412267 -9.750045198742864
ltibia 37.17069726780653
lfoot -3.5218337568606883 3.0492903590879386
ltoes -5.435272650918117
rfemur 0.6496625693202844 5.381049746052401 35.874185144171705
rtibia 25.551406717732615
rfoot -19.732686104751632 -12.116689764993946
rtoes -1.6292849055799388
lowerback 11.054699554376237 1.4334218137818366 5.922586938087188
upperback 0.2807633522197378 2.812330315247262 2.578319826111329
thorax -5.762398102554356 1.2531204919025292 -1.0637207416621792
lowerneck -16.636197780210665 -3.331731550712624 -1.5104984181745915
upperneck 20.942905731817408 -4.17682520323685 -0.2122830244360845
head 9.377386025344206 -2.0897711851530327 -0.35950637836355825
lclavicle -1.3551358091453597e-15 7.266333486602414e-16
lhumerus -33.462194585823056 9.717940010457264 80.60830122092774
lradius 24.211202880946423
lwrist 4.150059112212514
lhand -26.378716116169226 33.905371558741145
lfingers 7.125019999999999
lthumb 0.17998388304924795 63.88507156190681
rclavicle -1.3551358091453597e-15 7.266333486602414e-16
rhumerus -21.573914370339338 -10.066617522644277 -82.37118659575624
rradius 30.337295557278342
rwrist -0.7472532518564208
rhand -19.24769014546537 22.97889754956528
rfingers 7.125019999999999
rthumb 7.066019855628417 -6.883132262715068
21
root 0.38095101801773523 17.913858052241164 -7.3942113683183965 -1.7842754378695918 -1.9892735070361054 -1.4749763474681872
lfemur -22.29584924821082 -1.025712329967199 -17.839196291896066
ltibia 38.222897375564195
lfoot -4.584632847997031 -1.4502526253127341
ltoes -9.138766129438354
rfemur -3.990611526156961 4.091637377649767 27.086509048552326
rtibia 30.055354185676173
rfoot -21.760652072089098 -12.903401668722466
rtoes -4.591946390604874
lowerback 11.39959695049854 0.8679183285332953 -0.7361637456643793
upperback 0.2249789986550883 1.0793705865934244 1.7970328282449206
thorax -6.061134359594088 0.6173041349945609 0.12248500790620698
lowerneck -17.002993985244164 -3.450522357909579 -1.4404074388350172
upperneck 20.948268477189774 -4.635551166626619 0.4532391054368692
head 9.26089311414974 -2.2340371078750074 -0.24618172665954022
lclavicle -1.3551357803013584e-15 7.266333515343748e-16
lhumerus -34.607168537063565 7.8754362199877495 81.06904500142521
lradius 23.827466418461057
lwrist 6.7003118575123946
lhand -29.127326765064193 20.00221937166603
lfingers 7.125019999999999
lthumb -2.3573046080376465 50.30442870702374
rclavicle -1.3551357800380546e-15 7.266333516926677e-16
rhumerus -24.1888927870677 -15.40406068145499 -77.79023672026949
rradius 30.577717084616452
rwrist 2.0679968827389272
rhand -18.45184797025855 23.395279070172908
rfingers 7.125019999999999
rthumb 7.763535764527536 -6.41357447399873
22
root 0.4116149193515436 17.910033223935784 -5.919068647507244 -2.4078988416499056 -1.6415991697620302 1.5985501735901373
lfemur -19.268086957950462 -1.089196912512994 -21.50724584021822
ltibia 35.91896911712503
lfoot -2.8735483968984283 -5.322732205905501
ltoes -10.948133477668248
rfemur -7.390287259628441 2.477869604519413 23.173971977433613
rtibia 34.2526522460165
rfoot -22.691071513608556 -13.652131799139061
rtoes -7.485069131596197
lowerback 11.633218522096941 0.5191285374479255 -2.908142368735377
upperback 0.2991734494113359 0.5167426940830866 1.3199782708922905
thorax -6.111463436058834 0.37492050978829367 0.817094693794154
lowerneck -16.945921145214644 -3.5535109239686475 -1.3214492870955816
upperneck 20.754501641531956 -4.903044016790185 0.9004837909319222
head 9.191914218495953 -2.307516390418649 -0.10541914978011677
lclavicle -1.3551357803037e-15 7.266333515328365e-16
lhumerus -35.11184132995702 7.9062809782663415 81.6287427137395
lradius 23.14062409827412
lwrist 9.837974286001032
lhand -30.089812286576713 19.117170446303497
lfingers 7.125019999999999
lthumb -3.371803977974773 49.33747490993575
rclavicle -1.3551357800428349e-15 7.266333516896115e-16
rhumerus -24.7928017945246 -16.74874684853436 -76.18728480441507
rradius 30.93484264344555
rwrist 4.573820677335926
rhand -18.251070195197173 23.273543256762494
rfingers 7.125019999999999
rthumb 7.981629193242298 -6.6183751191972195
23
root 0.4296501034425723 17.903838910526115 -3.9273036436152218 -2.745568440066142 -1.2297376182111932 2.5352087856735652
lfemur -16.733413845720378 -1.2520130972288817 -22.96767530314746
ltibia 32.4887258135384
lfoot -0.8243231808411 -6.90308367184103
ltoes -10.273989928849474
rfemur -10.61932777583917 1.1989619445921638 21.165868905192063
rtibia 37.66289507466998
rfoot -23.33747347197702 -14.241325316504378
rtoes -9.369294462554741
lowerback 11.727212067986883 0.40378576030753377 -3.5013631705059938
upperback 0.3331527221094508 0.2636192765292925 1.0333229841417564
thorax -6.140032707352539 0.2427306060947384 1.209972326070261
lowerneck -16.81028761262546 -3.617524048180078 -1.399672169688557
upperneck 20.574529561581087 -5.01556454489335 1.2118791430264322
head 9.11442708080435 -2.340061927283741 0.01910788257920093
lclavicle -1.3551357802827174e-15 7.266333515445479e-16
lhumerus -35.94554757400533 8.460935987710117 82.09633043843519
lradius 22.525629659226148
lwrist 10.872793429556548
lhand -30.312430436738143 19.00983742302711
lfingers 7.125019999999999
lthumb -3.4434989816655035 49.58020804868235
rclavicle -1.3551357800480899e-15 7.266333516855221e-16
rhumerus -24.768554129827344 -16.602532450134184 -75.24851338041326
rradius 31.21763464184375
rwrist 6.408306094171657
rhand -17.76793648770337 23.756855338074462
rfingers 7.125019999999999
rthumb 8.37043901639587 -6.45192650721464
24
root 0.43274618636847273 17.89772318723165 -2.3060064139513816 -2.636884597649007 -1.2685279827092457 1.5136509909391753
lfemur -15.287316677884757 -1.2396877371539128 -22.94226625337111
ltibia 29.65106800606836
lfoot 0.4643810682300762 -6.408032543752427
ltoes -7.293878923131594
rfemur -13.342548580216445 0.5925611312639003 21.084963686294206
rtibia 40.373632506853575
rfoot -23.066760678153607 -14.063918231370781
rtoes -11.212849367719055
lowerback 11.721039441331024 0.2549657640628754 -3.12070099899338
upperback 0.3429596368120555 0.263955830792936 1.0480210964323207
thorax -6.155809183895689 0.23141273860031691 1.3810355078914018
lowerneck -16.70509024025064 -3.69681893652556 -1.5021582383343914
upperneck 20.367329479505766 -5.1384049714679225 1.4320451266596677
head 9.032341572865475 -2.3765031149318867 0.058661407966359574
lclavicle -1.3551357802788702e-15 7.266333515463982e-16
lhumerus -36.534713474639084 9.333216190814897 82.34877468221508
lradius 22.35357562317122
lwrist 10.400609032428967
lhand -30.283894748462593 19.523236601925582
lfingers 7.125019999999999
lthumb -3.3284955678922783 50.23617618217133
rclavicle -1.3551357800613118e-15 7.266333516772876e-16
rhumerus -24.45681519642904 -15.923661365925483 -74.84522222681309
rradius 31.5873120503734
rwrist 6.508172148147024
rhand -17.741886125505896 23.576440962276095
rfingers 7.125019999999999
rthumb 8.494337063249446 -6.82108726323445
25
root 0.45012317983188754 17.899034051993326 -0.5752989305639371 -2.445100725716817 -1.3764496755758848 0.3199114290902463
lfemur -12.927157549837105 -0.9407317947992313 -22.473261166395194
ltibia 27.48151644660651
lfoot 1.9895490096091493 -5.355418550863824
ltoes -5.461204487282423
rfemur -15.696446884689628 0.4472760796635755 21.59643551244321
rtibia 42.12928256875085
rfoot -21.993139571672415 -13.210621022865258
rtoes -11.401749151498343
lowerback 11.630334366299207 0.22032075751536795 -2.2199369801654543
upperback 0.29531510063636746 0.4152688128403821 1.1509326352550557
thorax -6.163315230833029 0.34860345218301325 1.2899862197272607
lowerneck -16.632220733588856 -3.745420198290076 -1.393738052442151
upperneck 20.301068187353614 -5.215326351022984 1.561014313610979
head 9.034309907240337 -2.3831571316606266 0.09203487277438702
lclavicle -1.3551357802766594e-15 7.26633351547262e-16
lhumerus -37.145144789207485 10.365019349056396 82.20231597186739
lradius 22.31183605979297
lwrist 9.777004371357721
lhand -30.141096661496576 19.88368167158403
lfingers 7.125019999999999
lthumb -3.1019310430624785 50.70130723566413
rclavicle -1.355135780066102e-15 7.266333516738358e-16
rhumerus -24.06126629721384 -15.024666019724727 -74.46295070700222
rradius 32.08344430275544
rwrist 5.254451421995624
rhand -17.89237258419593 23.61688923693502
rfingers 7.125019999999999
rthumb 8.647931989515662 -6.028868650396818
